<?xml version="1.0" encoding="UTF-8" standalone="no"?>
<!DOCTYPE svg PUBLIC "-//W3C//DTD SVG 1.1//EN"
 "http://www.w3.org/Graphics/SVG/1.1/DTD/svg11.dtd">
<!-- Generated by graphviz version 2.38.0 (20140413.2041)
 -->
<!-- Title: %3 Pages: 1 -->
<svg width="688pt" height="218pt"
 viewBox="0.00 0.00 688.31 218.00" xmlns="http://www.w3.org/2000/svg" xmlns:xlink="http://www.w3.org/1999/xlink">
<g id="graph0" class="graph" transform="scale(1 1) rotate(0) translate(4 214)">
<title>%3</title>
<polygon fill="white" stroke="none" points="-4,4 -4,-214 684.311,-214 684.311,4 -4,4"/>
<!-- Make Steam -->
<g id="node1" class="node"><title>Make Steam</title>
<ellipse fill="none" stroke="black" cx="84.311" cy="-192" rx="55.7903" ry="18"/>
<text text-anchor="middle" x="84.311" y="-188.3" font-family="Times New Roman,serif" font-size="14.00">Make Steam</text>
</g>
<!-- Steamer Ready -->
<g id="node3" class="node"><title>Steamer Ready</title>
<ellipse fill="none" stroke="black" cx="160.311" cy="-105" rx="65.7887" ry="18"/>
<text text-anchor="middle" x="160.311" y="-101.3" font-family="Times New Roman,serif" font-size="14.00">Steamer Ready</text>
</g>
<!-- Make Steam&#45;&gt;Steamer Ready -->
<g id="edge9" class="edge"><title>Make Steam&#45;&gt;Steamer Ready</title>
<path fill="none" stroke="black" d="M41.093,-180.532C15.2506,-172.176 -10.0186,-158.901 4.31104,-141 15.2909,-127.284 53.5613,-118.574 89.4456,-113.274"/>
<polygon fill="black" stroke="black" points="90.0613,-116.722 99.4788,-111.868 89.0899,-109.79 90.0613,-116.722"/>
<text text-anchor="middle" x="69.311" y="-144.8" font-family="Times New Roman,serif" font-size="14.00">Steam Knob Backward</text>
</g>
<!-- Espresso Ready -->
<g id="node2" class="node"><title>Espresso Ready</title>
<ellipse fill="none" stroke="black" cx="469.311" cy="-192" rx="70.3881" ry="18"/>
<text text-anchor="middle" x="469.311" y="-188.3" font-family="Times New Roman,serif" font-size="14.00">Espresso Ready</text>
</g>
<!-- Espresso Ready&#45;&gt;Steamer Ready -->
<g id="edge5" class="edge"><title>Espresso Ready&#45;&gt;Steamer Ready</title>
<path fill="none" stroke="black" d="M417.726,-179.637C389.433,-173.174 353.804,-164.659 322.311,-156 300.76,-150.075 295.661,-147.613 274.311,-141 254.009,-134.711 231.658,-127.838 212.166,-121.86"/>
<polygon fill="black" stroke="black" points="213.141,-118.499 202.555,-118.915 211.09,-125.191 213.141,-118.499"/>
<text text-anchor="middle" x="350.311" y="-144.8" font-family="Times New Roman,serif" font-size="14.00">Steam On</text>
</g>
<!-- Off -->
<g id="node4" class="node"><title>Off</title>
<ellipse fill="none" stroke="black" cx="399.311" cy="-105" rx="27" ry="18"/>
<text text-anchor="middle" x="399.311" y="-101.3" font-family="Times New Roman,serif" font-size="14.00">Off</text>
</g>
<!-- Espresso Ready&#45;&gt;Off -->
<g id="edge4" class="edge"><title>Espresso Ready&#45;&gt;Off</title>
<path fill="none" stroke="black" d="M416.914,-179.97C404.523,-174.786 392.76,-167.173 385.311,-156 380.423,-148.668 381.309,-139.646 384.273,-131.292"/>
<polygon fill="black" stroke="black" points="387.571,-132.491 388.484,-121.935 381.188,-129.618 387.571,-132.491"/>
<text text-anchor="middle" x="416.311" y="-144.8" font-family="Times New Roman,serif" font-size="14.00">Switch Off</text>
</g>
<!-- Make Espresso -->
<g id="node5" class="node"><title>Make Espresso</title>
<ellipse fill="none" stroke="black" cx="539.311" cy="-105" rx="66.8882" ry="18"/>
<text text-anchor="middle" x="539.311" y="-101.3" font-family="Times New Roman,serif" font-size="14.00">Make Espresso</text>
</g>
<!-- Espresso Ready&#45;&gt;Make Espresso -->
<g id="edge6" class="edge"><title>Espresso Ready&#45;&gt;Make Espresso</title>
<path fill="none" stroke="black" d="M465.498,-174.003C464.141,-163.696 464.217,-150.706 470.311,-141 474.63,-134.121 480.759,-128.539 487.601,-124.026"/>
<polygon fill="black" stroke="black" points="489.648,-126.886 496.566,-118.862 486.154,-120.82 489.648,-126.886"/>
<text text-anchor="middle" x="506.811" y="-144.8" font-family="Times New Roman,serif" font-size="14.00">Espresso On</text>
</g>
<!-- Steamer Ready&#45;&gt;Make Steam -->
<g id="edge8" class="edge"><title>Steamer Ready&#45;&gt;Make Steam</title>
<path fill="none" stroke="black" d="M155.537,-123.118C152.02,-133.471 146.425,-146.467 138.311,-156 133.582,-161.557 127.751,-166.556 121.688,-170.921"/>
<polygon fill="black" stroke="black" points="119.739,-168.014 113.359,-176.473 123.621,-173.839 119.739,-168.014"/>
<text text-anchor="middle" x="209.311" y="-144.8" font-family="Times New Roman,serif" font-size="14.00">Steam Knob Forward</text>
</g>
<!-- On -->
<g id="node6" class="node"><title>On</title>
<ellipse fill="none" stroke="black" cx="482.311" cy="-18" rx="27" ry="18"/>
<text text-anchor="middle" x="482.311" y="-14.3" font-family="Times New Roman,serif" font-size="14.00">On</text>
</g>
<!-- Off&#45;&gt;On -->
<g id="edge1" class="edge"><title>Off&#45;&gt;On</title>
<path fill="none" stroke="black" d="M395.275,-86.8578C393.834,-76.4961 393.9,-63.4995 400.311,-54 410.637,-38.7002 429.136,-30.0597 445.953,-25.1943"/>
<polygon fill="black" stroke="black" points="447.28,-28.4692 456.118,-22.627 445.566,-21.6823 447.28,-28.4692"/>
<text text-anchor="middle" x="430.311" y="-57.8" font-family="Times New Roman,serif" font-size="14.00">Switch On</text>
</g>
<!-- Make Espresso&#45;&gt;Espresso Ready -->
<g id="edge7" class="edge"><title>Make Espresso&#45;&gt;Espresso Ready</title>
<path fill="none" stroke="black" d="M545.546,-122.993C548.205,-133.298 549.461,-146.288 543.311,-156 538.721,-163.249 532.179,-169.026 524.863,-173.621"/>
<polygon fill="black" stroke="black" points="523.072,-170.612 515.989,-178.491 526.439,-176.749 523.072,-170.612"/>
<text text-anchor="middle" x="585.311" y="-144.8" font-family="Times New Roman,serif" font-size="14.00">Espresso Off</text>
</g>
<!-- On&#45;&gt;Espresso Ready -->
<g id="edge3" class="edge"><title>On&#45;&gt;Espresso Ready</title>
<path fill="none" stroke="black" d="M507.322,-24.837C537.656,-33.2587 588.098,-51.8216 615.311,-87 640.595,-119.684 638.898,-141.566 627.311,-156 616.46,-169.518 579.359,-178.136 543.835,-183.437"/>
<polygon fill="black" stroke="black" points="543.292,-179.979 533.881,-184.846 544.272,-186.91 543.292,-179.979"/>
<text text-anchor="middle" x="656.811" y="-101.3" font-family="Times New Roman,serif" font-size="14.00">Heat Up</text>
</g>
<!-- On&#45;&gt;Off -->
<g id="edge2" class="edge"><title>On&#45;&gt;Off</title>
<path fill="none" stroke="black" d="M477.872,-35.8041C474.436,-46.2925 468.806,-59.5489 460.311,-69 452.375,-77.8293 441.667,-85.0007 431.438,-90.5"/>
<polygon fill="black" stroke="black" points="429.653,-87.4791 422.272,-95.0797 432.782,-93.741 429.653,-87.4791"/>
<text text-anchor="middle" x="501.311" y="-57.8" font-family="Times New Roman,serif" font-size="14.00">Switch Off</text>
</g>
</g>
</svg>
